<?xml version="1.0" encoding="UTF-8"?>
<!DOCTYPE svg PUBLIC "-//W3C//DTD SVG 1.1//EN" "http://www.w3.org/Graphics/SVG/1.1/DTD/svg11.dtd">
<svg xmlns="http://www.w3.org/2000/svg" version="1.1" width="128px" height="128px" style="shape-rendering:geometricPrecision; text-rendering:geometricPrecision; image-rendering:optimizeQuality; fill-rule:evenodd; clip-rule:evenodd" xmlns:xlink="http://www.w3.org/1999/xlink">
<g><path style="opacity:1" fill="#000000" d="M -0.5,-0.5 C 42.1667,-0.5 84.8333,-0.5 127.5,-0.5C 127.5,42.1667 127.5,84.8333 127.5,127.5C 84.8333,127.5 42.1667,127.5 -0.5,127.5C -0.5,84.8333 -0.5,42.1667 -0.5,-0.5 Z"/></g>
<g><path style="opacity:1" fill="#1a0000" d="M 73.5,22.5 C 73.5,33.1667 73.5,43.8333 73.5,54.5C 66.9779,54.8235 60.6446,54.4902 54.5,53.5C 60.5,53.5 66.5,53.5 72.5,53.5C 72.1724,42.9865 72.5058,32.6532 73.5,22.5 Z"/></g>
<g><path style="opacity:1" fill="#96231c" d="M 88.5,55.5 C 76.8411,56.0552 65.1745,56.3885 53.5,56.5C 53.5,56.1667 53.5,55.8333 53.5,55.5C 60.3543,55.824 67.021,55.4907 73.5,54.5C 74.1667,54.5 74.8333,54.5 75.5,54.5C 76.3796,52.8632 77.0463,51.0299 77.5,49C 76.3788,40.8697 76.2121,32.703 77,24.5C 78.3528,23.2958 80.0194,22.6292 82,22.5C 84.3523,22.3049 86.3523,22.9716 88,24.5C 88.4998,34.828 88.6665,45.1613 88.5,55.5 Z"/></g>
<g><path style="opacity:1" fill="#8f2c26" d="M 90.5,71.5 C 90.1667,71.5 89.8333,71.5 89.5,71.5C 89.8214,65.9738 89.4881,60.6405 88.5,55.5C 88.6665,45.1613 88.4998,34.828 88,24.5C 86.3523,22.9716 84.3523,22.3049 82,22.5C 80.0194,22.6292 78.3528,23.2958 77,24.5C 76.2121,32.703 76.3788,40.8697 77.5,49C 77.0463,51.0299 76.3796,52.8632 75.5,54.5C 75.3335,44.1613 75.5002,33.828 76,23.5C 77.6977,22.267 79.6977,21.6004 82,21.5C 84.6709,21.2742 87.0042,21.9409 89,23.5C 89.5323,39.5014 90.0323,55.5014 90.5,71.5 Z"/></g>
<g><path style="opacity:1" fill="#621f1c" d="M 53.5,20.5 C 53.5,31.8333 53.5,43.1667 53.5,54.5C 52.8333,54.5 52.5,54.1667 52.5,53.5C 52.8276,42.9865 52.4942,32.6532 51.5,22.5C 48.0381,21.5184 44.3714,21.185 40.5,21.5C 38.5223,32.4507 37.8556,43.784 38.5,55.5C 38.5,60.8333 38.5,66.1667 38.5,71.5C 38.5,81.5 38.5,91.5 38.5,101.5C 38.1667,101.5 37.8333,101.5 37.5,101.5C 37.3334,74.4979 37.5,47.4979 38,20.5C 43.1662,19.1904 48.3329,19.1904 53.5,20.5 Z"/></g>
<g><path style="opacity:1" fill="#8b2a24" d="M 51.5,22.5 C 52.4942,32.6532 52.8276,42.9865 52.5,53.5C 51.5222,53.189 50.8555,52.5223 50.5,51.5C 51.3482,49.5914 51.6816,47.5914 51.5,45.5C 51.5,44.5 51.5,43.5 51.5,42.5C 51.5,35.8333 51.5,29.1667 51.5,22.5 Z"/></g>
<g><path style="opacity:1" fill="#852e28" d="M 40.5,21.5 C 39.5227,32.7524 39.1894,44.0857 39.5,55.5C 39.1667,55.5 38.8333,55.5 38.5,55.5C 37.8556,43.784 38.5223,32.4507 40.5,21.5 Z"/></g>
<g><path style="opacity:1" fill="#591a18" d="M 90.5,103.5 C 90.5,92.8333 90.5,82.1667 90.5,71.5C 90.0323,55.5014 89.5323,39.5014 89,23.5C 87.0042,21.9409 84.6709,21.2742 82,21.5C 79.6977,21.6004 77.6977,22.267 76,23.5C 75.5002,33.828 75.3335,44.1613 75.5,54.5C 74.8333,54.5 74.1667,54.5 73.5,54.5C 73.5,43.8333 73.5,33.1667 73.5,22.5C 73.4142,21.5041 73.7476,20.6708 74.5,20C 80.0838,19.1944 85.5838,19.3611 91,20.5C 91.8303,48.3364 91.6636,76.003 90.5,103.5 Z"/></g>
<g><path style="opacity:1" fill="#a0241c" d="M 78.5,23.5 C 80.924,23.1924 83.2573,23.5258 85.5,24.5C 86.1153,27.0393 86.7819,29.5393 87.5,32C 86.8411,36.4014 86.6745,40.568 87,44.5C 84.6667,45.8333 82.3333,45.8333 80,44.5C 79.195,46.9011 78.3617,46.7344 77.5,44C 78.1667,42.6667 78.8333,41.3333 79.5,40C 77.8766,34.5345 77.5432,29.0345 78.5,23.5 Z"/></g>
<g><path style="opacity:1" fill="#9e241b" d="M 51.5,42.5 C 51.5,43.5 51.5,44.5 51.5,45.5C 47.9227,45.6801 44.756,45.6801 42,45.5C 40.4055,38.2735 40.0722,30.9402 41,23.5C 44.0567,22.5495 47.2234,22.2161 50.5,22.5C 50.176,29.3543 50.5093,36.021 51.5,42.5 Z"/></g>
<g><path style="opacity:1" fill="#92221a" d="M 40.5,21.5 C 44.3714,21.185 48.0381,21.5184 51.5,22.5C 51.5,29.1667 51.5,35.8333 51.5,42.5C 50.5093,36.021 50.176,29.3543 50.5,22.5C 47.2234,22.2161 44.0567,22.5495 41,23.5C 40.0722,30.9402 40.4055,38.2735 42,45.5C 44.756,45.6801 47.9227,45.6801 51.5,45.5C 51.6816,47.5914 51.3482,49.5914 50.5,51.5C 50.8555,52.5223 51.5222,53.189 52.5,53.5C 52.5,54.1667 52.8333,54.5 53.5,54.5C 53.5,54.8333 53.5,55.1667 53.5,55.5C 48.8333,55.5 44.1667,55.5 39.5,55.5C 39.1894,44.0857 39.5227,32.7524 40.5,21.5 Z"/></g>
<g><path style="opacity:1" fill="#410605" d="M 53.5,20.5 C 54.4946,31.3206 54.8279,42.3206 54.5,53.5C 60.6446,54.4902 66.9779,54.8235 73.5,54.5C 67.021,55.4907 60.3543,55.824 53.5,55.5C 53.5,55.1667 53.5,54.8333 53.5,54.5C 53.5,43.1667 53.5,31.8333 53.5,20.5 Z"/></g>
<g><path style="opacity:1" fill="#cc2b24" d="M 53.5,56.5 C 64.3413,57.3924 75.3413,57.5591 86.5,57C 88.3987,61.1778 89.0653,65.6778 88.5,70.5C 83.5,70.5 78.5,70.5 73.5,70.5C 62.8689,69.6999 52.2022,69.5332 41.5,70C 40.5333,65.5986 40.2,61.0986 40.5,56.5C 44.8333,56.5 49.1667,56.5 53.5,56.5 Z"/></g>
<g><path style="opacity:1" fill="#af2f29" d="M 38.5,55.5 C 38.8333,55.5 39.1667,55.5 39.5,55.5C 44.1667,55.5 48.8333,55.5 53.5,55.5C 53.5,55.8333 53.5,56.1667 53.5,56.5C 49.1667,56.5 44.8333,56.5 40.5,56.5C 40.2,61.0986 40.5333,65.5986 41.5,70C 52.2022,69.5332 62.8689,69.6999 73.5,70.5C 73.5,70.8333 73.5,71.1667 73.5,71.5C 66.8333,71.5 60.1667,71.5 53.5,71.5C 52.8333,71.5 52.1667,71.5 51.5,71.5C 47.5,71.5 43.5,71.5 39.5,71.5C 39.1667,71.5 38.8333,71.5 38.5,71.5C 38.5,66.1667 38.5,60.8333 38.5,55.5 Z"/></g>
<g><path style="opacity:1" fill="#b7312b" d="M 88.5,55.5 C 89.4881,60.6405 89.8214,65.9738 89.5,71.5C 84.1667,71.5 78.8333,71.5 73.5,71.5C 73.5,71.1667 73.5,70.8333 73.5,70.5C 78.5,70.5 83.5,70.5 88.5,70.5C 89.0653,65.6778 88.3987,61.1778 86.5,57C 75.3413,57.5591 64.3413,57.3924 53.5,56.5C 65.1745,56.3885 76.8411,56.0552 88.5,55.5 Z"/></g>
<g><path style="opacity:1" fill="#8c1a12" d="M 39.5,71.5 C 43.5,71.5 47.5,71.5 51.5,71.5C 51.2402,73.595 50.0736,74.9283 48,75.5C 45.405,73.8542 42.5716,73.1875 39.5,73.5C 39.5,72.8333 39.5,72.1667 39.5,71.5 Z"/></g>
<g><path style="opacity:1" fill="#86211b" d="M 51.5,71.5 C 52.1667,71.5 52.8333,71.5 53.5,71.5C 53.5,71.8333 53.5,72.1667 53.5,72.5C 52.8333,81.8333 52.1667,91.1667 51.5,100.5C 51.8844,93.4112 51.3844,86.4112 50,79.5C 49,78.8333 48,78.1667 47,77.5C 44.8586,78.0749 42.3586,78.4082 39.5,78.5C 39.5,76.8333 39.5,75.1667 39.5,73.5C 42.5716,73.1875 45.405,73.8542 48,75.5C 50.0736,74.9283 51.2402,73.595 51.5,71.5 Z"/></g>
<g><path style="opacity:1" fill="#7e2b25" d="M 38.5,71.5 C 38.8333,71.5 39.1667,71.5 39.5,71.5C 39.5,72.1667 39.5,72.8333 39.5,73.5C 39.5,75.1667 39.5,76.8333 39.5,78.5C 39.5,86.5 39.5,94.5 39.5,102.5C 42.8333,102.5 46.1667,102.5 49.5,102.5C 49.5,102.833 49.5,103.167 49.5,103.5C 45.351,104.08 41.6843,103.414 38.5,101.5C 38.5,91.5 38.5,81.5 38.5,71.5 Z"/></g>
<g><path style="opacity:1" fill="#96251d" d="M 51.5,100.5 C 51.1667,101.5 50.5,102.167 49.5,102.5C 46.1667,102.5 42.8333,102.5 39.5,102.5C 39.5,94.5 39.5,86.5 39.5,78.5C 42.3586,78.4082 44.8586,78.0749 47,77.5C 48,78.1667 49,78.8333 50,79.5C 51.3844,86.4112 51.8844,93.4112 51.5,100.5 Z"/></g>
<g><path style="opacity:1" fill="#360605" d="M 53.5,71.5 C 60.1667,71.5 66.8333,71.5 73.5,71.5C 73.5,71.8333 73.5,72.1667 73.5,72.5C 67.1667,72.5 60.8333,72.5 54.5,72.5C 54.8271,82.3478 54.4938,92.0144 53.5,101.5C 53.5,91.8333 53.5,82.1667 53.5,72.5C 53.5,72.1667 53.5,71.8333 53.5,71.5 Z"/></g>
<g><path style="opacity:1" fill="#93241d" d="M 73.5,72.5 C 73.5,72.1667 73.5,71.8333 73.5,71.5C 78.8333,71.5 84.1667,71.5 89.5,71.5C 89.6665,81.5056 89.4998,91.5056 89,101.5C 85.6064,102.456 82.1064,102.789 78.5,102.5C 78.2172,101.711 77.7172,101.044 77,100.5C 76.8297,91.324 76.3297,82.324 75.5,73.5C 74.8333,73.1667 74.1667,72.8333 73.5,72.5 Z"/></g>
<g><path style="opacity:1" fill="#9f241c" d="M 43.5,82.5 C 45.6681,82.3351 48.0015,82.6684 50.5,83.5C 50.6495,84.552 50.4828,85.552 50,86.5C 49.0862,85.3463 48.2529,85.513 47.5,87C 48.5,87.3333 49.5,87.6667 50.5,88C 50.3744,89.9743 50.2078,92.141 50,94.5C 47.9045,95.7155 48.0712,96.5488 50.5,97C 49.3595,97.7412 49.3595,98.5745 50.5,99.5C 47.2317,100.487 43.8984,100.82 40.5,100.5C 40.6212,94.9854 40.6212,89.6521 40.5,84.5C 41.6016,83.8243 42.6016,83.1577 43.5,82.5 Z"/></g>
<g><path style="opacity:1" fill="#130000" d="M 73.5,72.5 C 73.5,82.1667 73.5,91.8333 73.5,101.5C 72.5064,92.3483 72.1731,83.015 72.5,73.5C 66.9066,73.1934 61.4066,73.5268 56,74.5C 55.6667,83.8333 55.3333,93.1667 55,102.5C 54.7508,103.624 54.2508,104.624 53.5,105.5C 50.8896,106.116 48.223,106.449 45.5,106.5C 42.7305,106.471 40.3972,105.805 38.5,104.5C 42.7016,104.817 46.7016,104.483 50.5,103.5C 52.1788,103.715 53.1788,103.048 53.5,101.5C 54.4938,92.0144 54.8271,82.3478 54.5,72.5C 60.8333,72.5 67.1667,72.5 73.5,72.5 Z"/></g>
<g><path style="opacity:1" fill="#67201c" d="M 53.5,72.5 C 53.5,82.1667 53.5,91.8333 53.5,101.5C 53.1788,103.048 52.1788,103.715 50.5,103.5C 50.1667,103.5 49.8333,103.5 49.5,103.5C 49.5,103.167 49.5,102.833 49.5,102.5C 50.5,102.167 51.1667,101.5 51.5,100.5C 52.1667,91.1667 52.8333,81.8333 53.5,72.5 Z"/></g>
<g><path style="opacity:1" fill="#65221e" d="M 89.5,71.5 C 89.8333,71.5 90.1667,71.5 90.5,71.5C 90.5,82.1667 90.5,92.8333 90.5,103.5C 85.3497,104.651 80.0164,104.817 74.5,104C 73.7476,103.329 73.4142,102.496 73.5,101.5C 73.5,91.8333 73.5,82.1667 73.5,72.5C 74.1667,72.8333 74.8333,73.1667 75.5,73.5C 75.5,83.1667 75.5,92.8333 75.5,102.5C 76.5,102.5 77.5,102.5 78.5,102.5C 82.1064,102.789 85.6064,102.456 89,101.5C 89.4998,91.5056 89.6665,81.5056 89.5,71.5 Z"/></g>
<g><path style="opacity:1" fill="#9f241c" d="M 82.5,79.5 C 84.0295,80.0668 85.5295,80.7334 87,81.5C 87.1971,86.0855 87.6971,90.5855 88.5,95C 87.8333,97 87.1667,99 86.5,101C 84.272,101.82 82.272,101.487 80.5,100C 82.2673,98.5123 82.6006,97.0123 81.5,95.5C 80.6143,96.325 80.281,97.325 80.5,98.5C 79.448,98.6495 78.448,98.4828 77.5,98C 78.1984,97.0293 78.1984,95.8626 77.5,94.5C 77.654,91.1438 78.9874,88.4771 81.5,86.5C 77.6872,85.7869 76.8538,83.7869 79,80.5C 80.313,81.2871 81.4797,80.9538 82.5,79.5 Z"/></g>
<g><path style="opacity:1" fill="#8c2a24" d="M 75.5,73.5 C 76.3297,82.324 76.8297,91.324 77,100.5C 77.7172,101.044 78.2172,101.711 78.5,102.5C 77.5,102.5 76.5,102.5 75.5,102.5C 75.5,92.8333 75.5,83.1667 75.5,73.5 Z"/></g>
<g><path style="opacity:1" fill="#3e0d0e" d="M 37.5,101.5 C 37.8333,101.5 38.1667,101.5 38.5,101.5C 41.6843,103.414 45.351,104.08 49.5,103.5C 49.8333,103.5 50.1667,103.5 50.5,103.5C 46.7016,104.483 42.7016,104.817 38.5,104.5C 37.596,103.791 37.2627,102.791 37.5,101.5 Z"/></g>
</svg>
