<?xml version="1.0" encoding="UTF-8"?>
<!DOCTYPE svg PUBLIC "-//W3C//DTD SVG 1.1//EN" "http://www.w3.org/Graphics/SVG/1.1/DTD/svg11.dtd">
<svg xmlns="http://www.w3.org/2000/svg" version="1.1" width="124px" height="124px" style="shape-rendering:geometricPrecision; text-rendering:geometricPrecision; image-rendering:optimizeQuality; fill-rule:evenodd; clip-rule:evenodd" xmlns:xlink="http://www.w3.org/1999/xlink">
<g><path style="opacity:1" fill="#010000" d="M 49.5,-0.5 C 57.5,-0.5 65.5,-0.5 73.5,-0.5C 99.8333,6.5 116.5,23.1667 123.5,49.5C 123.5,57.5 123.5,65.5 123.5,73.5C 116.5,99.8333 99.8333,116.5 73.5,123.5C 65.5,123.5 57.5,123.5 49.5,123.5C 23.1667,116.5 6.5,99.8333 -0.5,73.5C -0.5,65.5 -0.5,57.5 -0.5,49.5C 6.5,23.1667 23.1667,6.5 49.5,-0.5 Z"/></g>
<g><path style="opacity:1" fill="#380e0f" d="M 70.5,23.5 C 72.8097,22.8362 75.3097,22.5029 78,22.5C 80.9294,22.5248 83.4294,23.1914 85.5,24.5C 84.8333,24.5 84.1667,24.5 83.5,24.5C 79.3656,23.5151 75.0323,23.1818 70.5,23.5 Z"/></g>
<g><path style="opacity:1" fill="#431311" d="M 50.5,23.5 C 51.1667,33.5 51.8333,43.5 52.5,53.5C 57.9753,54.4889 63.642,54.8222 69.5,54.5C 69.5,44.5 69.5,34.5 69.5,24.5C 69.5,23.8333 69.8333,23.5 70.5,23.5C 70.5,33.8333 70.5,44.1667 70.5,54.5C 70.5,54.8333 70.5,55.1667 70.5,55.5C 63.8333,55.5 57.1667,55.5 50.5,55.5C 50.5,51.1667 50.5,46.8333 50.5,42.5C 50.5,36.5 50.5,30.5 50.5,24.5C 50.5,24.1667 50.5,23.8333 50.5,23.5 Z"/></g>
<g><path style="opacity:1" fill="#180000" d="M 69.5,24.5 C 69.5,34.5 69.5,44.5 69.5,54.5C 63.642,54.8222 57.9753,54.4889 52.5,53.5C 57.8333,53.5 63.1667,53.5 68.5,53.5C 68.1729,43.6522 68.5062,33.9856 69.5,24.5 Z"/></g>
<g><path style="opacity:1" fill="#872521" d="M 70.5,23.5 C 75.0323,23.1818 79.3656,23.5151 83.5,24.5C 79.8333,24.5 76.1667,24.5 72.5,24.5C 71.2428,32.8134 71.2428,41.1467 72.5,49.5C 72.4439,51.6397 71.7773,53.3064 70.5,54.5C 70.5,44.1667 70.5,33.8333 70.5,23.5 Z"/></g>
<g><path style="opacity:1" fill="#9a231a" d="M 83.5,24.5 C 83.5,34.8333 83.5,45.1667 83.5,55.5C 79.1667,55.5 74.8333,55.5 70.5,55.5C 70.5,55.1667 70.5,54.8333 70.5,54.5C 71.7773,53.3064 72.4439,51.6397 72.5,49.5C 71.2428,41.1467 71.2428,32.8134 72.5,24.5C 76.1667,24.5 79.8333,24.5 83.5,24.5 Z"/></g>
<g><path style="opacity:1" fill="#752520" d="M 50.5,23.5 C 50.5,23.8333 50.5,24.1667 50.5,24.5C 46.5,24.5 42.5,24.5 38.5,24.5C 38.5,31.1667 38.5,37.8333 38.5,44.5C 38.5,48.1667 38.5,51.8333 38.5,55.5C 37.5139,59.97 37.1805,64.6367 37.5,69.5C 37.5,79.5 37.5,89.5 37.5,99.5C 36.5023,74.3388 36.1689,49.0055 36.5,23.5C 41.1667,23.5 45.8333,23.5 50.5,23.5 Z"/></g>
<g><path style="opacity:1" fill="#671d1b" d="M 83.5,24.5 C 84.1667,24.5 84.8333,24.5 85.5,24.5C 85.5,49.8333 85.5,75.1667 85.5,100.5C 80.3054,100.821 75.3054,100.487 70.5,99.5C 75.1667,99.5 79.8333,99.5 84.5,99.5C 84.8293,84.6572 84.496,69.9905 83.5,55.5C 83.5,45.1667 83.5,34.8333 83.5,24.5 Z"/></g>
<g><path style="opacity:1" fill="#9e241b" d="M 50.5,24.5 C 50.5,30.5 50.5,36.5 50.5,42.5C 49.0014,43.6782 48.0014,45.3449 47.5,47.5C 46.561,45.9466 45.3943,44.6133 44,43.5C 42.2341,44.2335 40.4008,44.5668 38.5,44.5C 38.5,37.8333 38.5,31.1667 38.5,24.5C 42.5,24.5 46.5,24.5 50.5,24.5 Z"/></g>
<g><path style="opacity:1" fill="#932118" d="M 50.5,42.5 C 50.5,46.8333 50.5,51.1667 50.5,55.5C 46.5,55.5 42.5,55.5 38.5,55.5C 38.5,51.8333 38.5,48.1667 38.5,44.5C 40.4008,44.5668 42.2341,44.2335 44,43.5C 45.3943,44.6133 46.561,45.9466 47.5,47.5C 48.0014,45.3449 49.0014,43.6782 50.5,42.5 Z"/></g>
<g><path style="opacity:1" fill="#ca2b24" d="M 38.5,55.5 C 42.5,55.5 46.5,55.5 50.5,55.5C 57.1667,55.5 63.8333,55.5 70.5,55.5C 74.8333,55.5 79.1667,55.5 83.5,55.5C 83.5,60.1667 83.5,64.8333 83.5,69.5C 79.1667,69.5 74.8333,69.5 70.5,69.5C 63.8333,69.5 57.1667,69.5 50.5,69.5C 46.1667,69.5 41.8333,69.5 37.5,69.5C 37.1805,64.6367 37.5139,59.97 38.5,55.5 Z"/></g>
<g><path style="opacity:1" fill="#8c221b" d="M 37.5,69.5 C 41.8333,69.5 46.1667,69.5 50.5,69.5C 49.2196,70.9313 47.5529,71.5979 45.5,71.5C 45.5,72.8333 45.5,74.1667 45.5,75.5C 47.1667,75.5 48.8333,75.5 50.5,75.5C 50.5,83.5 50.5,91.5 50.5,99.5C 46.1667,99.5 41.8333,99.5 37.5,99.5C 37.5,89.5 37.5,79.5 37.5,69.5 Z"/></g>
<g><path style="opacity:1" fill="#862420" d="M 83.5,55.5 C 84.496,69.9905 84.8293,84.6572 84.5,99.5C 79.8333,99.5 75.1667,99.5 70.5,99.5C 70.8269,89.985 70.4936,80.6517 69.5,71.5C 63.6812,70.3475 57.6812,70.1808 51.5,71C 50.6198,72.3561 50.2865,73.8561 50.5,75.5C 48.8333,75.5 47.1667,75.5 45.5,75.5C 45.5,74.1667 45.5,72.8333 45.5,71.5C 47.5529,71.5979 49.2196,70.9313 50.5,69.5C 57.1667,69.5 63.8333,69.5 70.5,69.5C 72.4334,78.9053 73.1001,88.572 72.5,98.5C 76.1667,98.5 79.8333,98.5 83.5,98.5C 83.5,88.8333 83.5,79.1667 83.5,69.5C 83.5,64.8333 83.5,60.1667 83.5,55.5 Z"/></g>
<g><path style="opacity:1" fill="#9a2319" d="M 70.5,69.5 C 74.8333,69.5 79.1667,69.5 83.5,69.5C 83.5,79.1667 83.5,88.8333 83.5,98.5C 79.8333,98.5 76.1667,98.5 72.5,98.5C 73.1001,88.572 72.4334,78.9053 70.5,69.5 Z"/></g>
<g><path style="opacity:1" fill="#2d0c0a" d="M 69.5,71.5 C 63.8333,71.5 58.1667,71.5 52.5,71.5C 53.1389,81.2266 52.4722,90.5599 50.5,99.5C 50.5,91.5 50.5,83.5 50.5,75.5C 50.2865,73.8561 50.6198,72.3561 51.5,71C 57.6812,70.1808 63.6812,70.3475 69.5,71.5 Z"/></g>
<g><path style="opacity:1" fill="#9e241a" d="M 41.5,77.5 C 43.6681,77.3351 46.0015,77.6684 48.5,78.5C 49.1122,84.8944 49.1122,91.2277 48.5,97.5C 45.1667,97.5 41.8333,97.5 38.5,97.5C 38.5,91.1667 38.5,84.8333 38.5,78.5C 39.791,78.7373 40.791,78.404 41.5,77.5 Z"/></g>
</svg>
