<?xml version="1.0" encoding="UTF-8"?>
<!DOCTYPE svg PUBLIC "-//W3C//DTD SVG 1.1//EN" "http://www.w3.org/Graphics/SVG/1.1/DTD/svg11.dtd">
<svg xmlns="http://www.w3.org/2000/svg" version="1.1" width="95px" height="95px" style="shape-rendering:geometricPrecision; text-rendering:geometricPrecision; image-rendering:optimizeQuality; fill-rule:evenodd; clip-rule:evenodd" xmlns:xlink="http://www.w3.org/1999/xlink">
<g><path style="opacity:1" fill="#121325" d="M 36.5,-0.5 C 43.5,-0.5 50.5,-0.5 57.5,-0.5C 76.8333,4.83333 89.1667,17.1667 94.5,36.5C 94.5,43.5 94.5,50.5 94.5,57.5C 89.1667,76.8333 76.8333,89.1667 57.5,94.5C 50.5,94.5 43.5,94.5 36.5,94.5C 17.1667,89.1667 4.83333,76.8333 -0.5,57.5C -0.5,50.5 -0.5,43.5 -0.5,36.5C 4.83333,17.1667 17.1667,4.83333 36.5,-0.5 Z"/></g>
<g><path style="opacity:1" fill="#2c3043" d="M 51.5,20.5 C 54.1522,20.4095 56.4855,21.0762 58.5,22.5C 55.8478,22.5905 53.5145,21.9238 51.5,20.5 Z"/></g>
<g><path style="opacity:1" fill="#84869a" d="M 51.5,20.5 C 53.5145,21.9238 55.8478,22.5905 58.5,22.5C 63.7059,25.1966 68.2059,28.8633 72,33.5C 73.8681,36.6051 75.0348,39.9385 75.5,43.5C 75.5874,48.5365 75.254,53.5365 74.5,58.5C 73.3708,62.7552 71.2041,66.4219 68,69.5C 66.1667,69 65,67.8333 64.5,66C 65.741,64.2691 66.741,62.4358 67.5,60.5C 69.2132,59.3646 69.8799,57.698 69.5,55.5C 72.4374,41.5542 67.104,32.0542 53.5,27C 39.053,25.2128 29.3863,31.0461 24.5,44.5C 23.5934,51.9434 25.4267,58.6101 30,64.5C 30.6363,67.5217 29.4697,69.0217 26.5,69C 23.4823,65.4428 21.1489,61.6095 19.5,57.5C 18.8379,53.5341 18.5045,49.5341 18.5,45.5C 22.8168,28.5332 33.8168,20.1998 51.5,20.5 Z"/></g>
<g><path style="opacity:1" fill="#8d8fa3" d="M 24.5,44.5 C 23.8339,47.6893 23.1672,51.0227 22.5,54.5C 18.5426,48.9958 18.5426,43.4958 22.5,38C 23.448,37.5172 24.448,37.3505 25.5,37.5C 25.3259,39.861 24.9926,42.1944 24.5,44.5 Z"/></g>
<g><path style="opacity:1" fill="#828396" d="M 56.5,36.5 C 59.6802,36.1762 60.8469,37.5096 60,40.5C 55.7171,44.9049 51.5504,49.4049 47.5,54C 44.1309,54.2927 42.2975,52.7927 42,49.5C 47.028,45.3011 51.8613,40.9678 56.5,36.5 Z"/></g>
<g><path style="opacity:1" fill="#303246" d="M 18.5,45.5 C 18.5045,49.5341 18.8379,53.5341 19.5,57.5C 18.0744,55.3211 17.4078,52.8211 17.5,50C 17.5085,48.2933 17.8418,46.7933 18.5,45.5 Z"/></g>
<g><path style="opacity:1" fill="#5f6075" d="M 75.5,43.5 C 76.6484,47.9811 76.8151,52.6478 76,57.5C 75.6174,58.056 75.1174,58.3893 74.5,58.5C 75.254,53.5365 75.5874,48.5365 75.5,43.5 Z"/></g>
<g><path style="opacity:1" fill="#525366" d="M 69.5,55.5 C 69.8799,57.698 69.2132,59.3646 67.5,60.5C 67.7959,58.597 68.4625,56.9303 69.5,55.5 Z"/></g>
</svg>
